<svg version="1.1" id="Layer_1" xmlns="http://www.w3.org/2000/svg" xmlns:xlink="http://www.w3.org/1999/xlink" x="0px" y="0px" viewBox="0 0 500 500" style="width: 151px;" xml:space="preserve" data-imageid="authentication-1-86" imageName="Authentication 1" class="illustrations_image">
<style type="text/css">
	.st0_authentication-1-86{fill:#68E1FD;}
	.st1_authentication-1-86{fill:#093F68;}
	.st2_authentication-1-86{fill:#FFFFFF;}
	.st3_authentication-1-86{fill:#FFBC0E;}
	.st4_authentication-1-86{fill:#725858;}
	.st5_authentication-1-86{fill:#FFC9B0;}
	.st6_authentication-1-86{fill:#DFEAEF;}
	.st7_authentication-1-86{fill:#70CC40;}
	.st8_authentication-1-86{fill:none;}
	.st9_authentication-1-86{fill:#F56132;}
</style>
<g id="device-2_authentication-1-86">
	<path class="st0_authentication-1-86 targetColor" d="M336,120.3v190c0,9.1-7.4,16.5-16.6,16.5c0,0,0,0,0,0h-274c-9.1,0-16.5-7.4-16.6-16.5v-190&#10;&#9;&#9;c0-9.1,7.4-16.6,16.6-16.6c0,0,0,0,0,0h274C328.5,103.7,336,111.1,336,120.3C336,120.3,336,120.3,336,120.3z" style="fill: rgb(104, 225, 253);"/>
	<path class="st1_authentication-1-86" d="M319.4,328.8h-274c-5.1,0-9.9-2.1-13.4-5.8c-3.2-3.4-5-7.9-5-12.6v-190c0-10.2,8.2-18.4,18.4-18.4h274&#10;&#9;&#9;c10.2,0,18.4,8.2,18.4,18.4v190C337.8,320.5,329.6,328.7,319.4,328.8z M45.4,105.6c-8.1,0-14.7,6.6-14.7,14.7v190&#10;&#9;&#9;c0,3.7,1.4,7.3,4,10c2.8,3,6.7,4.6,10.7,4.6h274c8.1,0,14.7-6.6,14.7-14.7v-190c0-8.1-6.6-14.7-14.7-14.7L45.4,105.6z"/>
	<rect x="45.4" y="119" class="st1_authentication-1-86" width="274" height="162.3"/>
	<path class="st1_authentication-1-86" d="M319.4,283.2h-274c-1,0-1.8-0.8-1.8-1.8c0,0,0,0,0,0V119c0-1,0.8-1.8,1.8-1.8h274c1,0,1.9,0.8,1.9,1.8&#10;&#9;&#9;c0,0,0,0,0,0v162.3C321.3,282.3,320.4,283.2,319.4,283.2z M47.2,279.5h270.3V120.9H47.2V279.5z"/>
	<polygon class="st0_authentication-1-86 targetColor" points="240.8,394.4 124,394.4 136.3,326.9 228.5,326.9 &#9;" style="fill: rgb(104, 225, 253);"/>
	<path class="st1_authentication-1-86" d="M240.8,396.2H124c-0.5,0-1.1-0.2-1.4-0.7c-0.4-0.4-0.5-1-0.4-1.5l12.4-67.4c0.2-0.9,0.9-1.5,1.8-1.5h92.1&#10;&#9;&#9;c0.9,0,1.7,0.6,1.8,1.5l12.3,67.4c0.1,0.5,0,1.1-0.4,1.5C241.9,395.9,241.4,396.2,240.8,396.2z M126.2,392.5h112.4l-11.7-63.8&#10;&#9;&#9;h-89.1L126.2,392.5z"/>
	<circle class="st1_authentication-1-86" cx="182.4" cy="302.5" r="7.2"/>
	<path class="st1_authentication-1-86" d="M182.4,311.5c-5,0-9-4-9-9s4-9,9-9s9,4,9,9S187.4,311.5,182.4,311.5z M182.4,297.1c-2.9,0-5.3,2.4-5.3,5.3&#10;&#9;&#9;c0,2.9,2.4,5.3,5.3,5.3c2.9,0,5.3-2.4,5.3-5.3l0,0C187.7,299.5,185.4,297.1,182.4,297.1z"/>
	<path class="st0_authentication-1-86 targetColor" d="M100.3,376.6h164.3c2.3,0,4.2,1.9,4.2,4.2v10.5c0,2.3-1.9,4.2-4.2,4.2H100.3c-2.3,0-4.2-1.9-4.2-4.2v-10.5&#10;&#9;&#9;C96.1,378.5,98,376.6,100.3,376.6z" style="fill: rgb(104, 225, 253);"/>
	<path class="st1_authentication-1-86" d="M261,397.4H103.8c-5.3,0-9.6-4.3-9.6-9.6v-3.4c0-5.3,4.3-9.6,9.6-9.6H261c5.3,0,9.6,4.3,9.6,9.6v3.4&#10;&#9;&#9;C270.6,393.1,266.3,397.4,261,397.4z M103.8,378.5c-3.3,0-5.9,2.7-5.9,5.9v3.4c0,3.3,2.6,5.9,5.9,5.9H261c3.3,0,5.9-2.6,5.9-5.9&#10;&#9;&#9;v-3.4c0-3.3-2.6-5.9-5.9-5.9H103.8z"/>
</g>
<g id="device-1_authentication-1-86">
	<path class="st0_authentication-1-86 targetColor" d="M314.1,151.9h128c7.8,0,14.1,6.3,14.1,14.1v215.5c0,7.8-6.3,14.1-14.1,14.1h-128c-7.8,0-14.1-6.3-14.1-14.1&#10;&#9;&#9;V166C300.1,158.2,306.4,151.9,314.1,151.9z" style="fill: rgb(104, 225, 253);"/>
	<path class="st1_authentication-1-86" d="M441.8,397.4H314.5c-9,0-16.3-7.3-16.3-16.3V166.4c0-9,7.3-16.3,16.3-16.3h127.2c9,0,16.2,7.3,16.2,16.3v214.7&#10;&#9;&#9;C458,390.1,450.7,397.4,441.8,397.4z M314.5,153.8c-6.9,0-12.6,5.6-12.6,12.6v214.7c0,6.9,5.6,12.6,12.6,12.6h127.2&#10;&#9;&#9;c6.9,0,12.6-5.6,12.6-12.6V166.4c0-6.9-5.6-12.6-12.6-12.6H314.5z"/>
	<rect x="300.1" y="169" class="st2_authentication-1-86" width="156.1" height="205"/>
	<path class="st1_authentication-1-86" d="M456.2,375.9H300.1c-1,0-1.8-0.8-1.8-1.8c0,0,0,0,0,0V169c0-1,0.8-1.8,1.8-1.8c0,0,0,0,0,0h156.1&#10;&#9;&#9;c1,0,1.8,0.8,1.8,1.9v205C458,375,457.3,375.9,456.2,375.9C456.2,375.9,456.2,375.9,456.2,375.9z M301.9,372.2h152.4V170.9H301.9&#10;&#9;&#9;L301.9,372.2z"/>
	<path class="st2_authentication-1-86" d="M378.1,184.6c0,0-22.6,26.7-62.5,25.4v64.3c0,22.9,38.9,54.9,62.5,58.8c23.6-4,62.5-35.9,62.5-58.8V210&#10;&#9;&#9;C400.8,211.3,378.1,184.6,378.1,184.6z"/>
	<path class="st1_authentication-1-86" d="M378.1,335h-0.3c-23-3.9-64-35.9-64-60.6V210c0-0.5,0.2-1,0.6-1.3c0.3-0.4,0.8-0.6,1.4-0.5c0.9,0,1.8,0,2.7,0&#10;&#9;&#9;c36.8,0,58.1-24.6,58.3-24.8c0.7-0.8,1.9-0.8,2.7-0.1c0,0,0.1,0.1,0.1,0.1c0.2,0.3,21.5,24.8,58.3,24.8c0.9,0,1.8,0,2.7,0&#10;&#9;&#9;c0.5,0,1,0.2,1.3,0.5c0.4,0.3,0.6,0.8,0.6,1.3v64.3c0,24.7-41.1,56.8-64,60.6L378.1,335z M317.5,211.9v62.4&#10;&#9;&#9;c0,21.1,37.1,52.8,60.6,56.9c23.5-4.2,60.6-35.8,60.6-56.9v-62.4c-22.7,0.3-44.6-8.5-60.6-24.6C362,203.4,340.2,212.2,317.5,211.9z&#10;&#9;&#9;"/>
	<path class="st0_authentication-1-86 targetColor" d="M433.5,217.1v57.2c0,8.2-7.7,20.2-20,31.2c-3.3,3-6.8,5.7-10.5,8.3c-3.5,2.5-7.1,4.7-10.9,6.7&#10;&#9;&#9;c-4.4,2.4-9.1,4.2-14,5.4c-4.9-1.2-9.6-3-14-5.4c-3.8-2-7.4-4.2-10.9-6.7c-3.6-2.6-7.1-5.3-10.4-8.3c-12.4-11-20-23-20-31.2v-57.2&#10;&#9;&#9;c20.5-1,40-8.9,55.4-22.5C393.5,208.2,413,216.1,433.5,217.1z" style="fill: rgb(104, 225, 253);"/>
	<path class="st1_authentication-1-86" d="M378.1,327.7c-0.1,0-0.3,0-0.4,0c-5.1-1.2-10-3.1-14.5-5.6c-3.8-2-7.5-4.3-11.1-6.8c-3.7-2.6-7.2-5.4-10.6-8.4&#10;&#9;&#9;c-12.7-11.4-20.6-24-20.6-32.6v-57.2c0-1,0.8-1.8,1.8-1.9c20.1-0.9,39.2-8.7,54.2-22c0.7-0.6,1.8-0.6,2.5,0&#10;&#9;&#9;c15,13.3,34.2,21.1,54.2,22c1,0,1.8,0.9,1.8,1.9v57.2c0,8.7-7.9,21.2-20.6,32.6c-3.4,3-6.9,5.8-10.6,8.4c-3.5,2.5-7.2,4.8-11.1,6.8&#10;&#9;&#9;c-4.6,2.5-9.5,4.4-14.5,5.6C378.4,327.7,378.2,327.7,378.1,327.7z M324.6,218.9v55.5c0,7.6,7.6,19.3,19.4,29.8&#10;&#9;&#9;c3.3,2.9,6.7,5.6,10.3,8.1c3.4,2.4,7,4.6,10.6,6.5c4.2,2.3,8.6,4,13.2,5.1c4.6-1.1,9-2.9,13.2-5.1c3.7-1.9,7.3-4.1,10.7-6.6&#10;&#9;&#9;c3.6-2.5,7-5.2,10.3-8.1c11.8-10.5,19.4-22.3,19.4-29.8v-55.5c-19.7-1.3-38.5-9-53.5-21.8C363.1,209.9,344.3,217.5,324.6,218.9z"/>
	<path class="st3_authentication-1-86" d="M403,300.4v13.5c-3.5,2.5-7.1,4.7-10.9,6.7c-4.4,2.4-9.1,4.2-14,5.4c-4.9-1.2-9.6-3-14-5.4&#10;&#9;&#9;c-3.8-2-7.4-4.2-10.9-6.7v-13.5c0-9.3,7.5-16.9,16.9-16.9c0,0,0,0,0,0h16.1C395.5,283.5,403,291,403,300.4z"/>
	<path class="st1_authentication-1-86" d="M378.1,327.7c-0.1,0-0.3,0-0.4,0c-5.1-1.2-10-3.1-14.5-5.6c-3.8-2-7.5-4.3-11.1-6.8c-0.5-0.3-0.8-0.9-0.8-1.5&#10;&#9;&#9;v-13.5c0-10.3,8.4-18.7,18.7-18.7h16.1c10.3,0,18.7,8.4,18.7,18.7v13.5c0,0.6-0.3,1.2-0.8,1.5c-3.5,2.5-7.2,4.8-11.1,6.8&#10;&#9;&#9;c-4.6,2.5-9.5,4.4-14.5,5.6C378.4,327.7,378.2,327.7,378.1,327.7z M355.1,312.9c3.2,2.2,6.5,4.2,9.9,6c4.2,2.3,8.6,4,13.2,5.1&#10;&#9;&#9;c4.6-1.1,9-2.9,13.2-5.1c3.4-1.8,6.7-3.8,9.9-6v-12.5c0-8.3-6.7-15-15-15l0,0h-16.1c-8.3,0-15,6.7-15,15l0,0L355.1,312.9z&#10;&#9;&#9; M403.1,313.9L403.1,313.9z"/>
	<path class="st4_authentication-1-86" d="M376.2,213.6c2.2-0.1,4.5,0,6.7,0.3c5.8,0.6,11.3,2.8,15.9,6.4c12.2,9.9,9.7,26.4,9.7,40.4h-59.4&#10;&#9;&#9;c-0.3-1.2,0.2-2.5,0.2-3.7c0-1.3-0.2-2.6-0.6-3.9c-0.7-3.3-1.1-6.6-1.2-9.9c-0.1-4.7,0.5-11,3-15.1c2.7-4.5,6.5-8.2,11.1-10.8&#10;&#9;&#9;C366.1,214.9,371.1,213.6,376.2,213.6z"/>
	<path class="st1_authentication-1-86" d="M408.5,262.5h-59.4c-0.8,0-1.5-0.5-1.8-1.3c-0.3-1.1-0.3-2.2,0-3.3c0.1-0.3,0.1-0.7,0.1-1&#10;&#9;&#9;c0-0.9-0.1-1.7-0.4-2.5l-0.2-0.9c-0.7-3.4-1.1-6.8-1.2-10.2c-0.1-3.9,0.3-11.2,3.2-16.1c2.9-4.7,6.9-8.7,11.8-11.4&#10;&#9;&#9;c4.7-2.6,10-3.9,15.4-4c2.3-0.1,4.7,0,7,0.3c6.1,0.6,12,3,16.8,6.8c11.2,9.1,10.8,23.2,10.5,35.7c-0.1,2.1-0.1,4.2-0.1,6.2&#10;&#9;&#9;C410.3,261.7,409.5,262.5,408.5,262.5z M350.9,258.8h55.7c0-1.5,0.1-2.9,0.1-4.4c0.3-12.2,0.6-24.8-9.1-32.7&#10;&#9;&#9;c-4.3-3.4-9.5-5.4-14.9-6c-2.1-0.3-4.3-0.4-6.4-0.3l0,0c-4.8,0.1-9.5,1.3-13.7,3.6c-4.3,2.4-7.9,5.9-10.5,10.1&#10;&#9;&#9;c-1.8,3-2.8,8.1-2.7,14.1c0.1,3.2,0.5,6.4,1.1,9.6l0.2,0.8c0.3,1.1,0.4,2.3,0.4,3.5c0,0.5-0.1,1-0.2,1.5&#10;&#9;&#9;C351,258.7,350.9,258.7,350.9,258.8L350.9,258.8z M376.2,213.6L376.2,213.6z"/>
	<path class="st5_authentication-1-86" d="M374.1,280.3h8.5l0,0v6.5c0,1.1-0.9,2-1.9,2h0H376c-1.1,0-2-0.9-2-1.9v0L374.1,280.3L374.1,280.3z"/>
	<path class="st1_authentication-1-86" d="M379,290.6h-1.3c-3,0-5.4-2.4-5.5-5.5v-4.9c0-1,0.8-1.9,1.9-1.9l0,0h8.5c1,0,1.8,0.8,1.8,1.8c0,0,0,0,0,0v4.9&#10;&#9;&#9;C384.4,288.1,382,290.6,379,290.6z M376,282.1v3c0,1,0.8,1.8,1.8,1.8h1.2c1,0,1.8-0.8,1.8-1.8v-3H376z"/>
	<ellipse class="st5_authentication-1-86" cx="354.1" cy="258.3" rx="8.2" ry="7.1"/>
	<path class="st1_authentication-1-86" d="M354.1,267.2c-5.6,0-10.1-4-10.1-9s4.5-8.9,10.1-8.9s10.1,4,10.1,8.9S359.7,267.2,354.1,267.2z M354.1,253&#10;&#9;&#9;c-3.5,0-6.4,2.4-6.4,5.3s2.9,5.2,6.4,5.2s6.4-2.4,6.4-5.2S357.6,253,354.1,253L354.1,253z"/>
	<ellipse class="st5_authentication-1-86" cx="402.1" cy="258.3" rx="8.2" ry="7.1"/>
	<path class="st1_authentication-1-86" d="M402.1,267.2c-5.6,0-10.1-4-10.1-9s4.5-8.9,10.1-8.9s10.1,4,10.1,8.9S407.7,267.2,402.1,267.2z M402.1,253&#10;&#9;&#9;c-3.5,0-6.4,2.4-6.4,5.3s2.9,5.2,6.4,5.2s6.4-2.4,6.4-5.2S405.6,253,402.1,253L402.1,253z"/>
	<path class="st5_authentication-1-86" d="M378.3,281.4L378.3,281.4c-13.7,0-24.8-11.1-24.8-24.8c0,0,0,0,0,0v-9.1c0,0,7-4.2,8.8-9.8&#10;&#9;&#9;c0,0,7.8,6.9,16.9,8.7c8,1.5,16.2,1.1,24-1.3v11.5C403.2,270.3,392.1,281.4,378.3,281.4C378.4,281.4,378.4,281.4,378.3,281.4z"/>
	<path class="st1_authentication-1-86" d="M378.3,283.2c-14.7,0-26.7-12-26.7-26.7v-9.1c0-0.7,0.3-1.3,0.9-1.6c0.1,0,6.4-3.9,8-8.8&#10;&#9;&#9;c0.2-0.6,0.7-1,1.3-1.2c0.6-0.2,1.2,0,1.7,0.4c0.1,0.1,7.6,6.6,16,8.3c7.7,1.4,15.5,1,23-1.2c1-0.3,2,0.2,2.4,1.1&#10;&#9;&#9;c0.1,0.2,0.1,0.4,0.1,0.6v11.5C405,271.3,393.1,283.2,378.3,283.2z M355.3,248.4v8.1c0,12.7,10.3,23,23,23s23-10.3,23-23l0,0v-9&#10;&#9;&#9;c-7.4,1.9-15,2.1-22.5,0.6c-6.8-1.4-12.8-5.4-15.8-7.6C361.1,243.7,358.5,246.4,355.3,248.4L355.3,248.4z"/>
	<path class="st1_authentication-1-86" d="M378.2,265.5c-0.8,0-1.6-0.1-2.4-0.2c-1-0.2-1.7-1.1-1.5-2.1c0,0,0,0,0,0c0.2-1,1.1-1.7,2.1-1.5&#10;&#9;&#9;c0.6,0.1,1.3,0.2,1.9,0.1c-0.4-1.3-1-2.7-1.6-3.9c-0.5-0.9-0.1-2,0.8-2.5c0.9-0.4,2-0.1,2.4,0.8c1.9,3.7,2.6,6.3,2,7.8&#10;&#9;&#9;c-0.3,0.7-0.9,1.2-1.6,1.3C379.7,265.4,378.9,265.5,378.2,265.5z"/>
	<path class="st1_authentication-1-86" d="M364.1,322.3c-1,0-1.9-0.8-1.9-1.9l0,0v-18.7c-0.1-1,0.7-1.9,1.7-2c1-0.1,1.9,0.7,2,1.7c0,0.1,0,0.2,0,0.3&#10;&#9;&#9;v18.7C365.9,321.5,365.1,322.3,364.1,322.3C364.1,322.3,364.1,322.3,364.1,322.3z"/>
	<path class="st1_authentication-1-86" d="M392.2,322.3c-1,0-1.8-0.8-1.8-1.8c0,0,0,0,0,0v-18.7c-0.1-1,0.7-1.9,1.7-2c1-0.1,1.9,0.7,2,1.7&#10;&#9;&#9;c0,0.1,0,0.2,0,0.3v18.7C394,321.5,393.2,322.3,392.2,322.3L392.2,322.3z"/>
	<path class="st6_authentication-1-86" d="M345.3,352.1h-20.2c-1,0-1.9-0.8-1.9-1.9s0.8-1.9,1.9-1.9h20.2c1,0,1.9,0.8,1.9,1.9S346.4,352.1,345.3,352.1&#10;&#9;&#9;L345.3,352.1L345.3,352.1z"/>
	<path class="st6_authentication-1-86" d="M373.9,352.1h-20.2c-1,0-1.9-0.8-1.9-1.9s0.8-1.9,1.9-1.9h20.2c1,0,1.9,0.8,1.9,1.9S374.9,352.1,373.9,352.1&#10;&#9;&#9;L373.9,352.1z"/>
	<path class="st6_authentication-1-86" d="M402.5,352.1h-20.2c-1,0-1.9-0.8-1.9-1.9s0.8-1.9,1.9-1.9h20.2c1,0,1.9,0.8,1.9,1.9S403.5,352.1,402.5,352.1z"/>
	<path class="st6_authentication-1-86" d="M431.1,352.1h-20.2c-1,0-1.9-0.8-1.9-1.9s0.8-1.9,1.9-1.9l0,0h20.2c1,0,1.9,0.8,1.9,1.9&#10;&#9;&#9;S432.1,352.1,431.1,352.1L431.1,352.1z"/>
	<circle class="st7_authentication-1-86" cx="440.6" cy="294.2" r="30.5"/>
	<path class="st1_authentication-1-86" d="M440.6,326.6c-17.9,0-32.4-14.5-32.4-32.4s14.5-32.4,32.4-32.4s32.4,14.5,32.4,32.4c0,0,0,0,0,0&#10;&#9;&#9;C473,312.1,458.5,326.5,440.6,326.6z M440.6,265.5c-15.8,0-28.7,12.8-28.7,28.7s12.8,28.7,28.7,28.7s28.7-12.8,28.7-28.7&#10;&#9;&#9;C469.3,278.3,456.5,265.5,440.6,265.5z"/>
	<path class="st2_authentication-1-86" d="M433.9,310.6c-0.2,0-0.4,0-0.6,0c-1.6-0.2-3-1-3.9-2.2l-8.2-11.2c-1.8-2.5-1.3-6,1.2-7.8&#10;&#9;&#9;c2.5-1.8,6-1.3,7.8,1.2l4.6,6.3l18.3-16.2c2.3-2,5.8-1.8,7.8,0.5c2,2.3,1.8,5.8-0.5,7.8l-22.9,20.2&#10;&#9;&#9;C436.6,310.2,435.2,310.7,433.9,310.6z"/>
	<circle class="st0_authentication-1-86 targetColor" cx="378.1" cy="384.8" r="5.6" style="fill: rgb(104, 225, 253);"/>
	<path class="st1_authentication-1-86" d="M378.1,392.2c-4.1,0-7.4-3.3-7.4-7.4s3.3-7.4,7.4-7.4c4.1,0,7.4,3.3,7.4,7.4&#10;&#9;&#9;C385.5,388.9,382.2,392.2,378.1,392.2z M378.1,381c-2.1,0-3.7,1.7-3.7,3.7c0,2.1,1.7,3.7,3.7,3.7c2.1,0,3.7-1.7,3.7-3.7&#10;&#9;&#9;c0,0,0,0,0,0C381.9,382.7,380.2,381,378.1,381C378.1,381,378.1,381,378.1,381L378.1,381z"/>
	<path class="st1_authentication-1-86" d="M368.5,162.9h-4.2c-1,0.1-1.9-0.7-2-1.7c-0.1-1,0.7-1.9,1.7-2c0.1,0,0.2,0,0.3,0h4.2c1-0.1,1.9,0.7,2,1.7&#10;&#9;&#9;c0.1,1-0.7,1.9-1.7,2C368.7,162.9,368.6,162.9,368.5,162.9z"/>
	<path class="st1_authentication-1-86" d="M391.9,162.9h-16.4c-1,0.1-1.9-0.7-2-1.7c-0.1-1,0.7-1.9,1.7-2c0.1,0,0.2,0,0.3,0h16.4c1-0.1,1.9,0.7,2,1.7&#10;&#9;&#9;c0.1,1-0.7,1.9-1.7,2C392.1,162.9,392,162.9,391.9,162.9z"/>
</g>
<g id="pin_authentication-1-86">
	<path class="st2_authentication-1-86" d="M98.3,206.8h168.2c10.3,0,18.6,8.3,18.6,18.6v6c0,10.3-8.3,18.6-18.6,18.6H98.3c-10.3,0-18.6-8.3-18.6-18.6v-6&#10;&#9;&#9;C79.7,215.1,88,206.8,98.3,206.8z"/>
	<path class="st1_authentication-1-86" d="M263.5,251.9H101.3c-13,0-23.5-10.5-23.5-23.5s10.5-23.5,23.5-23.5l0,0h162.2c13,0,23.5,10.5,23.5,23.5&#10;&#9;&#9;S276.5,251.9,263.5,251.9z M101.3,208.6c-10.9-0.2-20,8.4-20.2,19.3s8.4,20,19.3,20.2c0.3,0,0.6,0,0.9,0h162.2&#10;&#9;&#9;c10.9,0.2,20-8.4,20.2-19.3s-8.4-20-19.3-20.2c-0.3,0-0.6,0-0.9,0H101.3z"/>
	<path class="st1_authentication-1-86" d="M116.1,243.7c-1,0-1.8-0.8-1.8-1.9l0,0V215c0-1,0.8-1.8,1.9-1.8c1,0,1.8,0.8,1.8,1.8v26.9&#10;&#9;&#9;C117.9,242.9,117.1,243.7,116.1,243.7z"/>
	<line class="st8_authentication-1-86" x1="127.8" y1="221.8" x2="104.4" y2="235"/>
	<path class="st1_authentication-1-86" d="M104.4,236.9c-1,0-1.8-0.8-1.8-1.9c0-0.7,0.4-1.3,0.9-1.6l23.4-13.2c0.9-0.5,2-0.2,2.5,0.6&#10;&#9;&#9;c0.5,0.9,0.2,2-0.6,2.5c0,0-0.1,0-0.1,0l-23.4,13.2C105,236.8,104.7,236.9,104.4,236.9z"/>
	<line class="st8_authentication-1-86" x1="104.4" y1="221.8" x2="127.8" y2="235"/>
	<path class="st1_authentication-1-86" d="M127.8,236.9c-0.3,0-0.6-0.1-0.9-0.2l-23.4-13.2c-0.9-0.5-1.2-1.7-0.6-2.5c0.5-0.8,1.6-1.1,2.5-0.7l23.4,13.2&#10;&#9;&#9;c0.9,0.5,1.2,1.6,0.7,2.5C129.1,236.5,128.5,236.9,127.8,236.9L127.8,236.9z"/>
	<path class="st1_authentication-1-86" d="M160.3,243.7c-1,0-1.9-0.8-1.9-1.8v0V215c0-1,0.8-1.9,1.8-1.9s1.9,0.8,1.9,1.8c0,0,0,0,0,0v26.9&#10;&#9;&#9;C162.1,242.9,161.3,243.7,160.3,243.7z"/>
	<line class="st8_authentication-1-86" x1="172" y1="221.8" x2="148.6" y2="235"/>
	<path class="st1_authentication-1-86" d="M148.6,236.9c-1,0-1.8-0.8-1.8-1.9c0-0.7,0.4-1.3,0.9-1.6l23.4-13.2c0.9-0.5,2-0.2,2.5,0.6&#10;&#9;&#9;c0.5,0.9,0.2,2-0.6,2.5c0,0-0.1,0-0.1,0l-23.4,13.2C149.2,236.8,148.9,236.9,148.6,236.9z"/>
	<line class="st8_authentication-1-86" x1="148.6" y1="221.8" x2="172" y2="235"/>
	<path class="st1_authentication-1-86" d="M172,236.9c-0.3,0-0.6-0.1-0.9-0.2l-23.4-13.2c-0.9-0.5-1.2-1.7-0.6-2.5c0.5-0.8,1.6-1.1,2.5-0.7l23.4,13.2&#10;&#9;&#9;c0.9,0.5,1.2,1.6,0.7,2.5C173.3,236.5,172.7,236.9,172,236.9z"/>
	<path class="st1_authentication-1-86" d="M204.5,243.7c-1,0-1.9-0.8-1.9-1.8v0V215c0-1,0.8-1.8,1.9-1.8c1,0,1.8,0.8,1.8,1.8v26.9&#10;&#9;&#9;C206.3,242.9,205.5,243.7,204.5,243.7z"/>
	<line class="st8_authentication-1-86" x1="216.2" y1="221.8" x2="192.8" y2="235"/>
	<path class="st1_authentication-1-86" d="M192.8,236.9c-1,0-1.8-0.8-1.8-1.9c0-0.7,0.4-1.3,0.9-1.6l23.4-13.2c0.9-0.5,2-0.2,2.5,0.6&#10;&#9;&#9;c0.5,0.9,0.2,2-0.6,2.5c0,0-0.1,0-0.1,0l-23.4,13.2C193.4,236.8,193.1,236.9,192.8,236.9z"/>
	<line class="st8_authentication-1-86" x1="192.8" y1="221.8" x2="216.2" y2="235"/>
	<path class="st1_authentication-1-86" d="M216.2,236.9c-0.3,0-0.6-0.1-0.9-0.2l-23.4-13.2c-0.9-0.5-1.2-1.6-0.8-2.5c0.5-0.9,1.6-1.2,2.5-0.8&#10;&#9;&#9;c0,0,0.1,0,0.1,0l23.4,13.2c0.9,0.5,1.2,1.6,0.7,2.5C217.5,236.5,216.9,236.9,216.2,236.9z"/>
	<path class="st1_authentication-1-86" d="M248.7,243.7c-1,0-1.9-0.8-1.9-1.8v0V215c0-1,0.8-1.8,1.9-1.8c1,0,1.8,0.8,1.8,1.8v26.9&#10;&#9;&#9;C250.5,242.9,249.7,243.7,248.7,243.7z"/>
	<line class="st8_authentication-1-86" x1="260.4" y1="221.8" x2="237" y2="235"/>
	<path class="st1_authentication-1-86" d="M237,236.9c-1,0-1.8-0.8-1.8-1.9c0-0.7,0.4-1.3,0.9-1.6l23.4-13.2c0.9-0.5,2-0.1,2.5,0.8&#10;&#9;&#9;c0.5,0.9,0.2,1.9-0.7,2.5l-23.4,13.2C237.6,236.8,237.3,236.9,237,236.9z"/>
	<line class="st8_authentication-1-86" x1="237" y1="221.8" x2="260.4" y2="235"/>
	<path class="st1_authentication-1-86" d="M260.4,236.9c-0.3,0-0.6-0.1-0.9-0.2l-23.4-13.2c-0.9-0.5-1.2-1.7-0.6-2.5c0.5-0.8,1.6-1.1,2.5-0.7l23.4,13.2&#10;&#9;&#9;c0.9,0.5,1.2,1.6,0.7,2.5C261.7,236.5,261.1,236.9,260.4,236.9z"/>
</g>
<g id="padlock_authentication-1-86">
	<path class="st2_authentication-1-86" d="M169.1,170.3c-0.9,0-1.6-0.6-1.8-1.5l-2.4-11.2c-1.6-7.2,3-14.3,10.2-15.8c7.2-1.6,14.3,3,15.8,10.2l0,0&#10;&#9;&#9;c0.2,1-0.5,2-1.5,2.1c-0.9,0.1-1.8-0.4-2.1-1.3c-1-5.2-6.1-8.6-11.3-7.6s-8.6,6.1-7.6,11.3c0,0.1,0.1,0.3,0.1,0.4l2.4,11.2&#10;&#9;&#9;c0.2,1-0.4,2-1.4,2.2C169.4,170.3,169.3,170.3,169.1,170.3z"/>
	<path class="st9_authentication-1-86" d="M162.6,166.3h32.6l0,0v22.8c0,3.1-2.5,5.6-5.6,5.6l0,0h-21.4c-3.1,0-5.6-2.5-5.6-5.6l0,0V166.3L162.6,166.3z"/>
	<path class="st1_authentication-1-86" d="M184.9,196.6H173c-6.7,0-12.2-5.5-12.2-12.2v-18.1c0-1,0.8-1.9,1.8-1.9h0h32.6c1,0,1.9,0.8,1.9,1.8v0v18.1&#10;&#9;&#9;C197.1,191.1,191.6,196.5,184.9,196.6z M164.5,168.1v16.2c0,4.7,3.8,8.5,8.5,8.5h11.9c4.7,0,8.5-3.8,8.5-8.5v-16.2H164.5z"/>
	<circle class="st1_authentication-1-86" cx="179.1" cy="176.1" r="3.3"/>
	<path class="st1_authentication-1-86" d="M179.1,181.3c-2.9,0-5.2-2.3-5.2-5.2s2.3-5.2,5.2-5.2c2.9,0,5.2,2.3,5.2,5.2C184.3,179,182,181.3,179.1,181.3z&#10;&#9;&#9; M179.1,174.6c-0.8,0-1.5,0.7-1.5,1.5s0.7,1.5,1.5,1.5c0.8,0,1.5-0.7,1.5-1.5S179.9,174.6,179.1,174.6&#10;&#9;&#9;C179.1,174.6,179.1,174.6,179.1,174.6z"/>
	<path class="st1_authentication-1-86" d="M179.1,189.3c-1,0-1.9-0.8-1.9-1.8v0v-10c0-1,0.8-1.8,1.9-1.8c1,0,1.8,0.8,1.8,1.8v10&#10;&#9;&#9;C181,188.5,180.1,189.3,179.1,189.3z"/>
</g>
</svg>