<svg version="1.1" id="Layer_1" xmlns="http://www.w3.org/2000/svg" xmlns:xlink="http://www.w3.org/1999/xlink" x="0px" y="0px"
	 width="100%" viewBox="0 0 1200 1200" enable-background="new 0 0 1200 1200" xml:space="preserve">
<path fill="#FDD65F" opacity="1.000000" stroke="none" 
	d="
M523.000000,1201.000000 
	C348.666656,1201.000000 174.833328,1201.000000 1.000000,1201.000000 
	C1.000000,801.000000 1.000000,401.000000 1.000000,1.000000 
	C401.000000,1.000000 801.000000,1.000000 1201.000000,1.000000 
	C1201.000000,401.000000 1201.000000,801.000000 1201.000000,1201.000000 
	C975.166687,1201.000000 749.333313,1201.000000 523.000000,1201.000000 
M405.500305,691.428589 
	C413.913086,691.428589 422.325897,691.428589 431.281555,691.428589 
	C431.281555,664.093506 431.281555,637.602173 431.281555,609.582703 
	C433.118317,611.922729 434.060516,612.991821 434.858673,614.159363 
	C451.585175,638.627563 468.345581,663.072998 484.940369,687.630371 
	C486.849243,690.455139 488.829803,691.578918 492.232056,691.506042 
	C502.393036,691.288330 512.561707,691.428467 522.727356,691.428650 
	C528.025391,691.428772 533.323425,691.428650 538.618835,691.428650 
	C538.844543,690.197754 539.065308,689.555298 539.065552,688.912720 
	C539.085083,641.250854 539.064148,593.588867 539.142700,545.927124 
	C539.147888,542.760498 537.942688,542.012390 534.997864,542.042358 
	C522.167114,542.172913 509.334290,542.089600 496.502319,542.116577 
	C495.404236,542.118835 494.306641,542.360779 492.804230,542.539490 
	C492.804230,569.366699 492.804230,595.925720 492.804230,622.484741 
	C490.668549,621.436951 489.433807,620.013489 488.377350,618.468140 
	C471.745605,594.139404 455.105896,569.815918 438.569946,545.422119 
	C436.892731,542.947876 435.090240,541.979614 432.061646,542.023499 
	C419.565521,542.204468 407.065216,542.099609 394.566467,542.099854 
	C391.467529,542.099915 388.368591,542.099854 385.241394,542.099854 
	C385.241394,592.204895 385.241394,641.598328 385.241394,691.428589 
	C391.876617,691.428589 398.188721,691.428589 405.500305,691.428589 
M674.502441,542.099121 
	C670.669617,542.099121 666.821350,542.312988 663.008240,542.039062 
	C659.187866,541.764526 656.642578,542.965515 654.137207,546.074707 
	C641.595581,561.638550 628.777283,576.980347 615.964539,592.323608 
	C614.906799,593.590210 613.164429,594.285034 611.740173,595.245544 
	C611.240417,593.658630 610.319275,592.075073 610.306702,590.484314 
	C610.193665,576.153748 610.247986,561.821960 610.229187,547.490479 
	C610.226868,545.748718 610.083069,544.007080 610.011719,542.418823 
	C593.452332,542.418823 577.528625,542.418823 561.354492,542.418823 
	C561.354492,592.129333 561.354492,641.511902 561.354492,691.116943 
	C577.711853,691.116943 593.789795,691.116943 610.239441,691.116943 
	C610.239441,687.996948 610.638184,685.120361 610.173889,682.390625 
	C607.444031,666.341248 613.001099,653.593689 625.248596,643.382324 
	C625.375427,643.276550 625.476318,643.139465 625.588745,643.016479 
	C629.427307,638.816101 630.917908,638.975037 633.558777,644.017029 
	C641.046936,658.313171 648.601868,672.576294 655.883484,686.977234 
	C657.526062,690.225708 659.350647,691.576843 663.094727,691.519653 
	C677.589417,691.298279 692.089539,691.438171 706.587646,691.420959 
	C708.030823,691.419250 709.473816,691.263672 711.377075,691.152649 
	C710.589844,689.482178 710.090454,688.294617 709.487610,687.162170 
	C694.867004,659.697083 680.301941,632.201904 665.520447,604.823608 
	C663.690369,601.434021 664.026001,599.376343 666.538330,596.585083 
	C681.584778,579.868713 696.445923,562.985474 711.348267,546.139648 
	C712.258911,545.110229 712.990356,543.922302 714.323608,542.099121 
	C700.735168,542.099121 688.118225,542.099121 674.502441,542.099121 
M330.556976,593.089844 
	C345.334351,576.397095 360.111755,559.704346 375.697113,542.098938 
	C356.908264,542.098938 339.755066,542.186707 322.604370,542.020447 
	C319.409607,541.989441 317.465210,543.069580 315.495514,545.484314 
	C302.756378,561.101257 289.885925,576.611694 276.966827,592.080444 
	C275.719269,593.574158 273.845886,594.545166 272.263000,595.758850 
	C271.834564,595.423828 271.406158,595.088806 270.977722,594.753784 
	C270.977722,577.337891 270.977722,559.921997 270.977722,542.459839 
	C254.402634,542.459839 238.355713,542.459839 222.284225,542.459839 
	C222.284225,592.214417 222.284225,641.599121 222.284225,691.065796 
	C238.677032,691.065796 254.738235,691.065796 271.049500,691.065796 
	C271.049500,688.048889 271.429535,685.331238 270.987549,682.754517 
	C268.207977,666.549438 273.814392,653.781738 286.058716,643.200623 
	C290.770966,639.128418 291.617798,638.802063 294.620605,644.541687 
	C302.100525,658.838989 309.634796,673.108948 316.950287,687.490173 
	C318.440460,690.419617 320.171295,691.543091 323.486816,691.504700 
	C338.314117,691.332764 353.144531,691.440796 367.973816,691.421021 
	C369.246338,691.419312 370.518616,691.221680 372.376923,691.065918 
	C370.810333,688.097412 369.521149,685.630066 368.210297,683.174255 
	C354.265839,657.050232 340.371368,630.899170 326.304626,604.841064 
	C324.506500,601.510132 324.500488,599.050293 327.407867,596.593811 
	C328.416321,595.741699 329.207031,594.631958 330.556976,593.089844 
M808.641235,602.500305 
	C808.641724,597.003174 808.870178,591.493469 808.567139,586.013184 
	C808.344788,581.992737 809.428711,580.412598 813.762512,580.599609 
	C821.743347,580.943909 829.749756,580.697693 837.745483,580.697632 
	C842.162292,580.697571 846.579102,580.697632 850.949890,580.697632 
	C850.949890,567.451904 850.949890,554.905273 850.949890,542.310059 
	C806.125122,542.310059 761.691528,542.310059 716.917847,542.310059 
	C716.917847,555.081482 716.917847,567.633362 716.917847,580.697693 
	C718.838257,580.697693 720.460083,580.697693 722.081848,580.697754 
	C732.742859,580.698181 743.410339,580.915527 754.061707,580.595642 
	C758.528015,580.461487 759.654663,581.869446 759.632324,586.226685 
	C759.460693,619.707947 759.538635,653.190552 759.539001,686.672729 
	C759.539001,688.111816 759.538940,689.550903 759.538940,691.137573 
	C776.135986,691.137573 792.210083,691.137573 808.641235,691.137573 
	C808.641235,661.726929 808.641235,632.613586 808.641235,602.500305 
M987.033386,704.757812 
	C938.915344,704.757812 890.797363,704.757812 842.230225,704.757812 
	C842.230225,706.973694 842.233887,708.608704 842.229553,710.243713 
	C842.209961,717.699646 842.209167,717.701477 849.859131,717.701538 
	C895.181580,717.702087 940.504089,717.701721 985.826538,717.701660 
	C987.767944,717.701660 989.709290,717.701660 991.953430,717.701660 
	C991.953430,713.136902 991.953430,709.229553 991.953430,705.047302 
	C990.507751,704.943481 989.213989,704.850586 987.033386,704.757812 
M254.964188,382.528870 
	C252.501053,380.561310 250.222839,378.280853 247.535461,376.692749 
	C242.292908,373.594635 240.460999,374.346008 238.143600,379.825562 
	C237.174332,382.117462 236.203461,384.408752 235.217636,386.693542 
	C231.124786,396.179413 226.958130,398.228210 216.819489,396.672485 
	C212.295898,395.978363 206.932892,394.766510 203.136795,396.455353 
	C192.267960,401.290680 181.859116,407.239990 171.578674,413.277893 
	C167.542038,415.648712 167.978928,420.972626 172.344101,422.897461 
	C175.295273,424.198792 179.069824,423.632812 181.684708,423.839508 
	C184.159302,425.541656 186.438431,428.292969 188.893463,428.460083 
	C191.275528,428.622284 194.205093,426.533600 196.222229,424.695831 
	C198.400055,422.711609 199.798904,419.872375 202.025497,416.713959 
	C202.857300,426.926544 205.508926,428.384888 213.823563,424.382812 
	C220.990280,420.933289 228.014389,417.356964 236.339081,417.022461 
	C241.749146,416.805054 245.822830,413.459564 248.469315,408.550629 
	C250.810547,404.207886 253.111450,399.811615 255.857269,395.726013 
	C260.312714,389.096588 260.460114,389.195648 254.964188,382.528870 
M165.889175,488.311310 
	C164.684052,491.193268 161.712418,494.901154 162.601990,496.803833 
	C165.373322,502.731323 170.364670,507.068359 176.912003,509.095001 
	C179.529663,509.905273 181.325073,509.273895 182.369415,506.447113 
	C183.748077,502.715393 185.345337,499.051239 187.064697,495.461517 
	C190.033813,489.262543 195.340118,486.676208 202.081085,487.871765 
	C208.984085,489.096100 215.949417,490.487915 222.561935,486.846405 
	C231.290924,482.039337 239.940155,477.087036 248.607834,472.169281 
	C251.574921,470.485840 253.052002,467.937988 251.600845,464.677338 
	C250.105957,461.318390 247.275284,459.647675 243.493103,460.398712 
	C241.910797,460.712891 240.414536,461.460388 240.223969,461.528717 
	C237.299164,459.266296 235.120651,456.233032 232.987885,456.264893 
	C230.177933,456.306824 227.050339,458.335144 224.716827,460.293091 
	C222.513855,462.141510 221.162247,465.004669 219.652420,467.118652 
	C218.458206,464.052216 218.164490,460.625061 216.416489,459.539337 
	C214.559891,458.386169 211.004364,458.712860 208.747955,459.685699 
	C200.834656,463.097595 193.279327,467.130798 184.341248,467.737457 
	C178.942078,468.103912 174.949326,471.413483 172.525223,476.540649 
	C170.704926,480.390747 168.399826,484.011658 165.889175,488.311310 
M207.180725,429.459442 
	C201.328918,427.534943 196.776520,428.820587 194.154190,433.138306 
	C191.756897,437.085480 192.549210,441.399994 196.605972,445.672760 
	C199.461029,448.679779 202.233353,451.830841 205.464737,454.383179 
	C206.774490,455.417694 209.995773,455.968689 210.988647,455.130432 
	C215.149933,451.617310 219.047180,447.705078 222.554718,443.530334 
	C225.532883,439.985565 225.449509,435.730042 222.610992,432.041656 
	C219.787735,428.373138 215.874237,427.477570 211.447433,428.911224 
	C210.265015,429.294159 209.048782,429.572662 207.180725,429.459442 
z"/>
<path fill="#010100" opacity="1.000000" stroke="none" 
	d="
M405.000549,691.428589 
	C398.188721,691.428589 391.876617,691.428589 385.241394,691.428589 
	C385.241394,641.598328 385.241394,592.204895 385.241394,542.099854 
	C388.368591,542.099854 391.467529,542.099915 394.566467,542.099854 
	C407.065216,542.099609 419.565521,542.204468 432.061646,542.023499 
	C435.090240,541.979614 436.892731,542.947876 438.569946,545.422119 
	C455.105896,569.815918 471.745605,594.139404 488.377350,618.468140 
	C489.433807,620.013489 490.668549,621.436951 492.804230,622.484741 
	C492.804230,595.925720 492.804230,569.366699 492.804230,542.539490 
	C494.306641,542.360779 495.404236,542.118835 496.502319,542.116577 
	C509.334290,542.089600 522.167114,542.172913 534.997864,542.042358 
	C537.942688,542.012390 539.147888,542.760498 539.142700,545.927124 
	C539.064148,593.588867 539.085083,641.250854 539.065552,688.912720 
	C539.065308,689.555298 538.844543,690.197754 538.618835,691.428650 
	C533.323425,691.428650 528.025391,691.428772 522.727356,691.428650 
	C512.561707,691.428467 502.393036,691.288330 492.232056,691.506042 
	C488.829803,691.578918 486.849243,690.455139 484.940369,687.630371 
	C468.345581,663.072998 451.585175,638.627563 434.858673,614.159363 
	C434.060516,612.991821 433.118317,611.922729 431.281555,609.582703 
	C431.281555,637.602173 431.281555,664.093506 431.281555,691.428589 
	C422.325897,691.428589 413.913086,691.428589 405.000549,691.428589 
z"/>
<path fill="#010100" opacity="1.000000" stroke="none" 
	d="
M675.001892,542.099121 
	C688.118225,542.099121 700.735168,542.099121 714.323608,542.099121 
	C712.990356,543.922302 712.258911,545.110229 711.348267,546.139648 
	C696.445923,562.985474 681.584778,579.868713 666.538330,596.585083 
	C664.026001,599.376343 663.690369,601.434021 665.520447,604.823608 
	C680.301941,632.201904 694.867004,659.697083 709.487610,687.162170 
	C710.090454,688.294617 710.589844,689.482178 711.377075,691.152649 
	C709.473816,691.263672 708.030823,691.419250 706.587646,691.420959 
	C692.089539,691.438171 677.589417,691.298279 663.094727,691.519653 
	C659.350647,691.576843 657.526062,690.225708 655.883484,686.977234 
	C648.601868,672.576294 641.046936,658.313171 633.558777,644.017029 
	C630.917908,638.975037 629.427307,638.816101 625.588745,643.016479 
	C625.476318,643.139465 625.375427,643.276550 625.248596,643.382324 
	C613.001099,653.593689 607.444031,666.341248 610.173889,682.390625 
	C610.638184,685.120361 610.239441,687.996948 610.239441,691.116943 
	C593.789795,691.116943 577.711853,691.116943 561.354492,691.116943 
	C561.354492,641.511902 561.354492,592.129333 561.354492,542.418823 
	C577.528625,542.418823 593.452332,542.418823 610.011719,542.418823 
	C610.083069,544.007080 610.226868,545.748718 610.229187,547.490479 
	C610.247986,561.821960 610.193665,576.153748 610.306702,590.484314 
	C610.319275,592.075073 611.240417,593.658630 611.740173,595.245544 
	C613.164429,594.285034 614.906799,593.590210 615.964539,592.323608 
	C628.777283,576.980347 641.595581,561.638550 654.137207,546.074707 
	C656.642578,542.965515 659.187866,541.764526 663.008240,542.039062 
	C666.821350,542.312988 670.669617,542.099121 675.001892,542.099121 
z"/>
<path fill="#010100" opacity="1.000000" stroke="none" 
	d="
M330.327087,593.364868 
	C329.207031,594.631958 328.416321,595.741699 327.407867,596.593811 
	C324.500488,599.050293 324.506500,601.510132 326.304626,604.841064 
	C340.371368,630.899170 354.265839,657.050232 368.210297,683.174255 
	C369.521149,685.630066 370.810333,688.097412 372.376923,691.065918 
	C370.518616,691.221680 369.246338,691.419312 367.973816,691.421021 
	C353.144531,691.440796 338.314117,691.332764 323.486816,691.504700 
	C320.171295,691.543091 318.440460,690.419617 316.950287,687.490173 
	C309.634796,673.108948 302.100525,658.838989 294.620605,644.541687 
	C291.617798,638.802063 290.770966,639.128418 286.058716,643.200623 
	C273.814392,653.781738 268.207977,666.549438 270.987549,682.754517 
	C271.429535,685.331238 271.049500,688.048889 271.049500,691.065796 
	C254.738235,691.065796 238.677032,691.065796 222.284225,691.065796 
	C222.284225,641.599121 222.284225,592.214417 222.284225,542.459839 
	C238.355713,542.459839 254.402634,542.459839 270.977722,542.459839 
	C270.977722,559.921997 270.977722,577.337891 270.977722,594.753784 
	C271.406158,595.088806 271.834564,595.423828 272.263000,595.758850 
	C273.845886,594.545166 275.719269,593.574158 276.966827,592.080444 
	C289.885925,576.611694 302.756378,561.101257 315.495514,545.484314 
	C317.465210,543.069580 319.409607,541.989441 322.604370,542.020447 
	C339.755066,542.186707 356.908264,542.098938 375.697113,542.098938 
	C360.111755,559.704346 345.334351,576.397095 330.327087,593.364868 
z"/>
<path fill="#020201" opacity="1.000000" stroke="none" 
	d="
M808.641235,603.000305 
	C808.641235,632.613586 808.641235,661.726929 808.641235,691.137573 
	C792.210083,691.137573 776.135986,691.137573 759.538940,691.137573 
	C759.538940,689.550903 759.539001,688.111816 759.539001,686.672729 
	C759.538635,653.190552 759.460693,619.707947 759.632324,586.226685 
	C759.654663,581.869446 758.528015,580.461487 754.061707,580.595642 
	C743.410339,580.915527 732.742859,580.698181 722.081848,580.697754 
	C720.460083,580.697693 718.838257,580.697693 716.917847,580.697693 
	C716.917847,567.633362 716.917847,555.081482 716.917847,542.310059 
	C761.691528,542.310059 806.125122,542.310059 850.949890,542.310059 
	C850.949890,554.905273 850.949890,567.451904 850.949890,580.697632 
	C846.579102,580.697632 842.162292,580.697571 837.745483,580.697632 
	C829.749756,580.697693 821.743347,580.943909 813.762512,580.599609 
	C809.428711,580.412598 808.344788,581.992737 808.567139,586.013184 
	C808.870178,591.493469 808.641724,597.003174 808.641235,603.000305 
z"/>
<path fill="#080703" opacity="1.000000" stroke="none" 
	d="
M987.476807,704.757751 
	C989.213989,704.850586 990.507751,704.943481 991.953430,705.047302 
	C991.953430,709.229553 991.953430,713.136902 991.953430,717.701660 
	C989.709290,717.701660 987.767944,717.701660 985.826538,717.701660 
	C940.504089,717.701721 895.181580,717.702087 849.859131,717.701538 
	C842.209167,717.701477 842.209961,717.699646 842.229553,710.243713 
	C842.233887,708.608704 842.230225,706.973694 842.230225,704.757812 
	C890.797363,704.757812 938.915344,704.757812 987.476807,704.757751 
z"/>
<path fill="#0D0B05" opacity="1.000000" stroke="none" 
	d="
M255.193939,382.799744 
	C260.460114,389.195648 260.312714,389.096588 255.857269,395.726013 
	C253.111450,399.811615 250.810547,404.207886 248.469315,408.550629 
	C245.822830,413.459564 241.749146,416.805054 236.339081,417.022461 
	C228.014389,417.356964 220.990280,420.933289 213.823563,424.382812 
	C205.508926,428.384888 202.857300,426.926544 202.025497,416.713959 
	C199.798904,419.872375 198.400055,422.711609 196.222229,424.695831 
	C194.205093,426.533600 191.275528,428.622284 188.893463,428.460083 
	C186.438431,428.292969 184.159302,425.541656 181.684708,423.839508 
	C179.069824,423.632812 175.295273,424.198792 172.344101,422.897461 
	C167.978928,420.972626 167.542038,415.648712 171.578674,413.277893 
	C181.859116,407.239990 192.267960,401.290680 203.136795,396.455353 
	C206.932892,394.766510 212.295898,395.978363 216.819489,396.672485 
	C226.958130,398.228210 231.124786,396.179413 235.217636,386.693542 
	C236.203461,384.408752 237.174332,382.117462 238.143600,379.825562 
	C240.460999,374.346008 242.292908,373.594635 247.535461,376.692749 
	C250.222839,378.280853 252.501053,380.561310 255.193939,382.799744 
M195.924683,414.820862 
	C192.114014,416.695709 188.261566,418.531494 187.484283,424.019958 
	C194.048401,424.194092 194.605072,418.575867 197.598724,414.933899 
	C197.602646,414.701416 197.606552,414.468933 197.610458,414.236420 
	C197.267166,414.357178 196.923874,414.477936 195.924683,414.820862 
M209.292511,416.862762 
	C208.426727,418.362946 207.560944,419.863098 206.695160,421.363281 
	C207.118149,421.631714 207.541122,421.900116 207.964096,422.168549 
	C210.195663,421.123077 212.371643,419.930695 214.669846,419.061371 
	C220.229462,416.958313 225.707977,414.025391 231.470825,413.213715 
	C241.037170,411.866302 244.064102,410.026703 246.198181,400.844879 
	C246.394302,400.001099 246.484985,398.985504 247.010498,398.390533 
	C249.623154,395.432892 252.365082,392.589447 255.641159,389.085876 
	C251.243896,385.379395 247.599274,382.307343 243.480103,378.835266 
	C241.455856,383.529602 239.998901,387.047211 238.431778,390.515045 
	C234.570068,399.060516 227.451111,403.114868 218.294464,401.066437 
	C209.297806,399.053864 201.310455,400.039154 193.714584,405.566559 
	C189.715576,408.476624 185.015564,410.416321 180.665512,412.853882 
	C178.243286,414.211151 175.889709,415.690857 173.537323,417.096222 
	C174.844894,421.009583 177.018845,420.025085 179.177689,418.827881 
	C184.996597,415.600891 190.606979,411.901733 196.682571,409.274353 
	C199.719376,407.961121 204.145050,407.338684 206.964630,408.596283 
	C212.017090,410.849792 215.060623,409.331604 218.336411,405.912628 
	C219.151642,405.061798 220.747223,404.958710 221.984131,404.511932 
	C221.823807,405.961151 222.210617,408.120178 221.409302,408.737823 
	C217.763840,411.547668 213.783966,413.923706 209.292511,416.862762 
z"/>
<path fill="#0D0B05" opacity="1.000000" stroke="none" 
	d="
M166.099869,488.022949 
	C168.399826,484.011658 170.704926,480.390747 172.525223,476.540649 
	C174.949326,471.413483 178.942078,468.103912 184.341248,467.737457 
	C193.279327,467.130798 200.834656,463.097595 208.747955,459.685699 
	C211.004364,458.712860 214.559891,458.386169 216.416489,459.539337 
	C218.164490,460.625061 218.458206,464.052216 219.652420,467.118652 
	C221.162247,465.004669 222.513855,462.141510 224.716827,460.293091 
	C227.050339,458.335144 230.177933,456.306824 232.987885,456.264893 
	C235.120651,456.233032 237.299164,459.266296 240.223969,461.528717 
	C240.414536,461.460388 241.910797,460.712891 243.493103,460.398712 
	C247.275284,459.647675 250.105957,461.318390 251.600845,464.677338 
	C253.052002,467.937988 251.574921,470.485840 248.607834,472.169281 
	C239.940155,477.087036 231.290924,482.039337 222.561935,486.846405 
	C215.949417,490.487915 208.984085,489.096100 202.081085,487.871765 
	C195.340118,486.676208 190.033813,489.262543 187.064697,495.461517 
	C185.345337,499.051239 183.748077,502.715393 182.369415,506.447113 
	C181.325073,509.273895 179.529663,509.905273 176.912003,509.095001 
	C170.364670,507.068359 165.373322,502.731323 162.601990,496.803833 
	C161.712418,494.901154 164.684052,491.193268 166.099869,488.022949 
M169.917816,490.402191 
	C168.768219,492.007996 167.618607,493.613831 166.011551,495.858612 
	C169.899567,499.152191 173.567551,502.259399 177.635605,505.705505 
	C179.721802,500.961182 181.258484,497.114441 183.077042,493.405914 
	C186.594742,486.232391 193.341522,481.229584 200.189789,483.134796 
	C212.573502,486.579987 222.595856,482.832489 232.421417,476.026154 
	C236.087799,473.486389 240.275986,471.706451 244.183929,469.504974 
	C245.417999,468.809753 246.514679,467.870697 247.674240,467.043274 
	C247.571182,466.458221 247.468124,465.873138 247.365067,465.288086 
	C245.490173,465.465759 243.352707,465.123291 241.787033,465.913574 
	C235.856659,468.907013 230.299149,472.706421 224.217987,475.305359 
	C221.181961,476.602966 216.915451,477.044067 213.916183,475.940735 
	C209.171310,474.195190 206.103226,475.023987 202.978577,478.605408 
	C202.232513,479.460510 200.299057,479.279633 198.911728,479.575256 
	C199.203644,478.272888 199.051575,476.393311 199.864365,475.768127 
	C203.383224,473.061554 207.117310,470.612671 210.907822,468.289886 
	C213.112747,466.938751 215.310471,465.880737 213.472687,462.429047 
	C211.977554,463.089386 210.632370,463.674316 209.294617,464.275757 
	C201.619919,467.726227 194.276993,471.729523 185.416061,472.210571 
	C182.374069,472.375671 178.422256,475.697052 176.879578,478.626343 
	C174.858749,482.463501 173.835846,486.795258 169.917816,490.402191 
M232.192139,460.407898 
	C229.218338,463.247437 226.244537,466.086975 223.270752,468.926544 
	C223.730118,469.447205 224.189484,469.967896 224.648849,470.488586 
	C226.781525,469.110504 229.273468,468.059814 230.927185,466.245239 
	C232.135605,464.919250 232.241013,462.587982 232.192139,460.407898 
z"/>
<path fill="#0D0B05" opacity="1.000000" stroke="none" 
	d="
M207.514404,429.679260 
	C209.048782,429.572662 210.265015,429.294159 211.447433,428.911224 
	C215.874237,427.477570 219.787735,428.373138 222.610992,432.041656 
	C225.449509,435.730042 225.532883,439.985565 222.554718,443.530334 
	C219.047180,447.705078 215.149933,451.617310 210.988647,455.130432 
	C209.995773,455.968689 206.774490,455.417694 205.464737,454.383179 
	C202.233353,451.830841 199.461029,448.679779 196.605972,445.672760 
	C192.549210,441.399994 191.756897,437.085480 194.154190,433.138306 
	C196.776520,428.820587 201.328918,427.534943 207.514404,429.679260 
M216.261322,433.016418 
	C214.854218,433.314697 213.048096,433.166168 212.117065,433.997589 
	C209.622696,436.225006 207.908600,435.700562 205.246704,433.995483 
	C203.758087,433.041962 199.981598,433.487457 198.857849,434.748138 
	C197.734726,436.008179 197.736862,439.723938 198.822723,441.213959 
	C201.518082,444.912567 205.112762,447.955841 209.134491,452.068420 
	C212.216019,448.630524 215.092194,445.441315 217.946350,442.232483 
	C221.159821,438.619720 220.951599,436.621796 216.261322,433.016418 
z"/>
<path fill="#F5CF5C" opacity="1.000000" stroke="none" 
	d="
M209.608444,416.659271 
	C213.783966,413.923706 217.763840,411.547668 221.409302,408.737823 
	C222.210617,408.120178 221.823807,405.961151 221.984131,404.511932 
	C220.747223,404.958710 219.151642,405.061798 218.336411,405.912628 
	C215.060623,409.331604 212.017090,410.849792 206.964630,408.596283 
	C204.145050,407.338684 199.719376,407.961121 196.682571,409.274353 
	C190.606979,411.901733 184.996597,415.600891 179.177689,418.827881 
	C177.018845,420.025085 174.844894,421.009583 173.537323,417.096222 
	C175.889709,415.690857 178.243286,414.211151 180.665512,412.853882 
	C185.015564,410.416321 189.715576,408.476624 193.714584,405.566559 
	C201.310455,400.039154 209.297806,399.053864 218.294464,401.066437 
	C227.451111,403.114868 234.570068,399.060516 238.431778,390.515045 
	C239.998901,387.047211 241.455856,383.529602 243.480103,378.835266 
	C247.599274,382.307343 251.243896,385.379395 255.641159,389.085876 
	C252.365082,392.589447 249.623154,395.432892 247.010498,398.390533 
	C246.484985,398.985504 246.394302,400.001099 246.198181,400.844879 
	C244.064102,410.026703 241.037170,411.866302 231.470825,413.213715 
	C225.707977,414.025391 220.229462,416.958313 214.669846,419.061371 
	C212.371643,419.930695 210.195663,421.123077 207.964096,422.168549 
	C207.541122,421.900116 207.118149,421.631714 206.695160,421.363281 
	C207.560944,419.863098 208.426727,418.362946 209.608444,416.659271 
z"/>
<path fill="#F5CF5C" opacity="1.000000" stroke="none" 
	d="
M197.092773,415.086304 
	C194.605072,418.575867 194.048401,424.194092 187.484283,424.019958 
	C188.261566,418.531494 192.114014,416.695709 196.380157,414.832245 
	C196.835617,414.843628 197.092773,415.086304 197.092773,415.086304 
z"/>
<path fill="#F5CF5C" opacity="1.000000" stroke="none" 
	d="
M196.708099,414.721161 
	C196.923874,414.477936 197.267166,414.357178 197.610474,414.236450 
	C197.606552,414.468933 197.602646,414.701416 197.345749,415.010101 
	C197.092773,415.086304 196.835617,414.843628 196.708099,414.721161 
z"/>
<path fill="#F5CF5C" opacity="1.000000" stroke="none" 
	d="
M170.113098,490.078857 
	C173.835846,486.795258 174.858749,482.463501 176.879578,478.626343 
	C178.422256,475.697052 182.374069,472.375671 185.416061,472.210571 
	C194.276993,471.729523 201.619919,467.726227 209.294617,464.275757 
	C210.632370,463.674316 211.977554,463.089386 213.472687,462.429047 
	C215.310471,465.880737 213.112747,466.938751 210.907822,468.289886 
	C207.117310,470.612671 203.383224,473.061554 199.864365,475.768127 
	C199.051575,476.393311 199.203644,478.272888 198.911728,479.575256 
	C200.299057,479.279633 202.232513,479.460510 202.978577,478.605408 
	C206.103226,475.023987 209.171310,474.195190 213.916183,475.940735 
	C216.915451,477.044067 221.181961,476.602966 224.217987,475.305359 
	C230.299149,472.706421 235.856659,468.907013 241.787033,465.913574 
	C243.352707,465.123291 245.490173,465.465759 247.365067,465.288086 
	C247.468124,465.873138 247.571182,466.458221 247.674240,467.043274 
	C246.514679,467.870697 245.417999,468.809753 244.183929,469.504974 
	C240.275986,471.706451 236.087799,473.486389 232.421417,476.026154 
	C222.595856,482.832489 212.573502,486.579987 200.189789,483.134796 
	C193.341522,481.229584 186.594742,486.232391 183.077042,493.405914 
	C181.258484,497.114441 179.721802,500.961182 177.635605,505.705505 
	C173.567551,502.259399 169.899567,499.152191 166.011551,495.858612 
	C167.618607,493.613831 168.768219,492.007996 170.113098,490.078857 
z"/>
<path fill="#F5CF5C" opacity="1.000000" stroke="none" 
	d="
M232.515106,460.556366 
	C232.241013,462.587982 232.135605,464.919250 230.927185,466.245239 
	C229.273468,468.059814 226.781525,469.110504 224.648849,470.488586 
	C224.189484,469.967896 223.730118,469.447205 223.270752,468.926544 
	C226.244537,466.086975 229.218338,463.247437 232.515106,460.556366 
z"/>
<path fill="#F5CF5C" opacity="1.000000" stroke="none" 
	d="
M216.651947,433.105927 
	C220.951599,436.621796 221.159821,438.619720 217.946350,442.232483 
	C215.092194,445.441315 212.216019,448.630524 209.134491,452.068420 
	C205.112762,447.955841 201.518082,444.912567 198.822723,441.213959 
	C197.736862,439.723938 197.734726,436.008179 198.857849,434.748138 
	C199.981598,433.487457 203.758087,433.041962 205.246704,433.995483 
	C207.908600,435.700562 209.622696,436.225006 212.117065,433.997589 
	C213.048096,433.166168 214.854218,433.314697 216.651947,433.105927 
z"/>
</svg>